<svg width="31" height="31" viewBox="0 0 31 31" fill="none" xmlns="http://www.w3.org/2000/svg">
<g clip-path="url(#clip0_23_35)">
<path d="M19.2635 29.5833C18.6961 30.1468 18.0004 30.564 17.2361 30.7991C15.6967 31.2763 14.2973 30.8681 13.0248 29.9475C12.6531 29.69 12.3003 29.4063 11.969 29.0985C9.9284 27.1203 7.4234 26.281 4.65774 25.9575C2.82553 25.7432 1.18242 25.0801 0.393588 23.2014C-0.448709 21.1954 0.128905 19.4543 1.48009 17.8965C2.4122 16.8218 3.65466 16.2435 4.94522 15.693C6.57551 14.9977 8.13527 14.1382 9.73472 13.3689C10.689 12.9099 11.6222 12.33 12.633 12.0809C14.9621 11.507 17.3585 12.9125 18.0797 15.2446C18.461 16.4779 18.579 17.7901 18.8822 19.0507C19.1722 20.256 19.2742 20.3115 19.7913 22.1675C20.3714 24.25 20.6607 25.3069 20.6221 26.0719C20.5928 26.6538 20.5091 28.3143 19.2635 29.5833Z" fill="#1C1B19"/>
<path d="M26.9129 7.83398C26.8809 10.3872 24.8136 13.0104 22.3322 13.6462C20.0609 14.2282 18.2675 12.8667 18.2211 10.5251C18.1677 7.82352 20.4494 4.94011 23.0046 4.48009C25.373 4.05372 26.9434 5.40131 26.9129 7.83398Z" fill="#1C1B19"/>
<path d="M9.58618 5.68997C9.71337 3.7402 10.2919 2.10278 11.7354 0.855246C13.3331 -0.525459 15.4145 -0.202625 16.5162 1.59394C17.9369 3.91063 17.0349 7.83102 14.7447 9.29342C12.6803 10.6117 10.3233 9.53417 9.77812 7.01217C9.67761 6.54709 9.63971 6.06848 9.58618 5.68997Z" fill="#1C1B19"/>
<path d="M26.9775 14.2607C29.343 14.2667 30.7028 16.2939 29.8409 18.4959C29.066 20.4757 27.6278 21.6337 25.5635 22.0408C23.0765 22.5313 21.2517 20.5585 21.9253 18.1151C22.5164 15.9709 24.7654 14.255 26.9775 14.2607Z" fill="#1C1B19"/>
<path d="M1.11182 8.25012C1.16597 7.18525 1.51168 5.8622 2.65679 4.90896C4.10957 3.69961 5.61125 3.83609 6.87667 5.23256C8.50261 7.02688 8.26307 10.7234 6.42012 12.2782C5.05735 13.4279 3.22215 13.2274 2.13478 11.8101C1.44373 10.9094 1.11536 9.88215 1.11182 8.25012Z" fill="#1C1B19"/>
</g>
<defs>
<clipPath id="clip0_23_35">
<rect width="30.1014" height="31" fill="white"/>
</clipPath>
</defs>
</svg>
