<svg xmlns="http://www.w3.org/2000/svg" viewBox="0 0 345.51496 381.91513"><defs><style>.cls-1{fill:#1c1b19;}.cls-2,.cls-3{fill:#eaeaea;}.cls-2{stroke:#000;stroke-miterlimit:10;}.cls-4{fill:#1d1d1b;}</style></defs><title>panda eaeaea</title><g id="Tiers"><rect id="Légendaire" class="cls-1" x="-97.2679" y="-60.86773" width="540.02538" height="540.02538"/></g><g id="Calque_1" data-name="Calque 1"><path class="cls-2" d="M278.62442,288.29608a88.79331,88.79331,0,0,1-51.39835,32.33642,75.81863,75.81863,0,0,1-15.89417,11.402c-6.75793,3.6239-21.02331,11.2735-39.1849,8.62274-15.631-2.28143-26.1431-11.02441-30.65647-15.32995a198.81463,198.81463,0,0,1-53.935-27.80564,105.55945,105.55945,0,0,1-24.32941-26.67639c-12.81914-20.16714-15.24152-39.37549-16.3134-48.69989-2.06917-18,.2632-33.20434,1.59592-41.89215.93954-6.12472,2.03434-11.19159,2.88769-14.76965-1.93571-8.29627-3.70669-17.145-5.2009-26.51358A380.55045,380.55045,0,0,1,41.8582,96.71908,32.22354,32.22354,0,0,1,52.22372,81.49447c13.13206-10.3631,30.23035-5.3566,34.23717-4.18338A47.24322,47.24322,0,0,1,110.816,94.683a196.092,196.092,0,0,1,43.39188-10.44833,201.02524,201.02524,0,0,1,88.37988,9.29141l18.04291-7.72366a27.38031,27.38031,0,0,1,14.255.362c18.60852,5.88434,24.1362,32.92749,26.42553,44.12766a101.47875,101.47875,0,0,1-1.02127,44.29788,127.96228,127.96228,0,0,1-21.66549,113.70615Z"/><path class="cls-1" d="M239.79522,116.7048a36.43806,36.43806,0,0,1,14.01853-12.13141c4.09094-1.97516,9.68139-4.65066,16.29483-3.06946,5.8685,1.40311,10.64154,5.91422,13.54937,11.20121,2.986,5.429,4.24167,10.3024,4.99558,17.29153a196.83561,196.83561,0,0,1,.70019,33.365,189.8786,189.8786,0,0,0-49.5585-46.65689Z"/><path class="cls-1" d="M61.64709,151.58349c-3.67667-13.9815-6.31343-25.70907-8.16965-34.66006a26.35048,26.35048,0,0,1,.01189-12.22138c1.7585-7.06884,8.02629-12.5466,15.09289-14.31411,8.63114-2.15885,15.79987.94452,21.04192,3.46487a44.36239,44.36239,0,0,1,18.10056,16.415,100.75725,100.75725,0,0,0-46.07761,41.31567Z"/><path class="cls-1" d="M112.529,97.26177a202.61263,202.61263,0,0,1,106.46693-6.64546,206.51044,206.51044,0,0,1,23.837,6.46241c3.05683,1.02776,4.36829-3.7996,1.3292-4.82139a207.90568,207.90568,0,0,0-108.68792-6.441,206.38426,206.38426,0,0,0-24.27444,6.624c-3.03049,1.02828-1.72983,5.85936,1.3292,4.8214Z"/><path class="cls-1" d="M230.81974,109.63894c6.59876-6.83649,13.49734-13.74149,22.24771-17.76681,7.94794-3.65619,17.21522-4.33476,24.98327.10272,16.58714,9.47535,19.18043,31.58632,20.58873,48.72506a206.92654,206.92654,0,0,1-.18431,35.7892,2.51876,2.51876,0,0,0,2.5,2.5,2.55307,2.55307,0,0,0,2.5-2.5,207.00664,207.00664,0,0,0,.35245-33.60168c-.75786-10.60973-1.90858-21.61127-5.36036-31.728-3.03439-8.89336-8.20345-17.11619-16.11909-22.41379-8.21723-5.49943-18.37919-6.10107-27.59629-2.89267-11.01005,3.83251-19.513,12.0299-27.44765,20.25043-2.2355,2.316,1.2957,5.85606,3.53554,3.53554Z"/><path class="cls-1" d="M54.89394,163.22255A305.13312,305.13312,0,0,1,46.62143,129.62c-1.04171-5.589-1.97759-11.21474-2.63971-16.86243-.62565-5.33652-.91317-10.85809.78576-16.03413,2.56451-7.81314,9.44924-13.92717,17.11217-16.57392,9.36-3.23293,19.85879-1.697,28.62205,2.60539,10.09545,4.95642,18.093,13.26468,24.4775,22.37965a2.56687,2.56687,0,0,0,3.42047.89688,2.52151,2.52151,0,0,0,.89688-3.42047c-6.15127-8.78207-13.58336-16.8487-22.88592-22.34428-9.53346-5.632-21.05707-8.30274-32.00628-6.00073A33.63166,33.63166,0,0,0,42.04649,90.53355c-5.67495,10.41861-3.22388,22.66676-1.40644,33.78392a304.80719,304.80719,0,0,0,9.43249,40.23428c.94125,3.06711,5.76914,1.75907,4.8214-1.3292Z"/><path class="cls-1" d="M298.54444,177.1537a139.35668,139.35668,0,0,1,3.47428,30.21759,135.03056,135.03056,0,0,1-6.53689,42.0525,145.97437,145.97437,0,0,1-9.92372,24.56293,91.14337,91.14337,0,0,1-22.4114,27.754,88.25988,88.25988,0,0,1-36.10086,17.48116q-1.73585.40215-3.48523.74107a2.52459,2.52459,0,0,0-1.7461,3.07529,2.55152,2.55152,0,0,0,3.07529,1.7461A91.79359,91.79359,0,0,0,287.72147,280.359a137.064,137.064,0,0,0,11.6972-26.87259,140.80107,140.80107,0,0,0,4.58258-74.71742q-.30241-1.47552-.63542-2.94447c-.70848-3.1374-5.53018-1.80959-4.82139,1.3292Z"/><path class="cls-1" d="M138.49418,326.96611a60.80748,60.80748,0,0,0,36.75912,17.66037c15.31539,1.52269,30.48773-3.73493,42.57076-13.02216a61.6023,61.6023,0,0,0,8.97161-8.21267,2.56134,2.56134,0,0,0,0-3.53553,2.523,2.523,0,0,0-3.53553,0,57.04349,57.04349,0,0,1-6.6912,6.40424c-1.19592.98824-1.62755,1.322-2.82425,2.19347q-1.75132,1.27544-3.58128,2.43794a62.88574,62.88574,0,0,1-8.74263,4.65506,52.80473,52.80473,0,0,1-45.847-2.04432,55.34513,55.34513,0,0,1-13.5441-10.07193c-2.27482-2.28187-5.811,1.253-3.53553,3.53553Z"/></g><g id="nez"><path class="cls-1" d="M169.61614,269.32336c-6.364,4.20971-9.16718,16.25835-3.4224,24.9456a19.33949,19.33949,0,0,0,24.27876,6.67361c8.24635-3.99561,12.68518-14.48987,9.80887-23.19012a14.61167,14.61167,0,0,0-4.35492-6.69829c-3.61792-3.05141-7.8858-3.23927-13.17716-3.39772C175.98028,267.45374,172.59577,267.35239,169.61614,269.32336Z"/></g><g id="yeux"><path class="cls-1" d="M50.56072,162.68653a58.09437,58.09437,0,0,0-6.39573,21.884,232.53741,232.53741,0,0,0-.53885,24.192c.3086,17.11078,2.689,34.13981,9.65681,49.89138a108.63867,108.63867,0,0,0,21.4214,31.34656,138.66413,138.66413,0,0,0,28.60106,22.90289,130.44127,130.44127,0,0,0,33.38843,13.97806q1.44747.38082,2.90352.72768a2.53134,2.53134,0,0,0,2.82327-3.6725,71.81417,71.81417,0,0,1-7.30937-21.60992,59.40037,59.40037,0,0,1,1.93606-26.94065c1.93395-6.28831,4.67444-12.32652,7.06828-18.44863q4.10406-10.49594,7.91294-21.10409,5.51063-15.3071,10.5146-30.79c.99628-3.06751-3.83-4.38156-4.8214-1.3292-5.48188,16.87842-11.338,33.63956-17.76129,50.18406-2.40513,6.19491-5.14556,12.3006-7.23931,18.60931a64.26627,64.26627,0,0,0-2.88184,27.936,76.23,76.23,0,0,0,8.264,26.01663l2.82328-3.6725a125.99226,125.99226,0,0,1-30.086-11.37533,132.385,132.385,0,0,1-29.94247-22.27945,107.93025,107.93025,0,0,1-20.49034-27.17867c-7.48633-14.32509-10.71118-30.14784-11.54171-46.19266-.43875-8.47622-.30372-16.97045-.004-25.44891.25955-7.34316,1.28576-14.42685,4.17882-21.24738.55588-1.31051,1.17964-2.593,1.83727-3.85513,1.48514-2.85027-2.82832-5.38133-4.31736-2.5236Z"/><path class="cls-1" d="M200.19414,207.20991c1.02392,16.07823,4.1385,32.02664,10.50013,46.87572a156.33272,156.33272,0,0,0,8.24554,15.776A55.28991,55.28991,0,0,1,226.58,293.81086a66.26774,66.26774,0,0,1-4.441,27.29311,2.52177,2.52177,0,0,0,1.7461,3.07529,2.55352,2.55352,0,0,0,3.07529-1.74609,72.424,72.424,0,0,0,4.73525-24.07494,58.03885,58.03885,0,0,0-6.2748-27.02235c-2.81574-5.56948-6.26154-10.77545-8.91366-16.43584a113.26394,113.26394,0,0,1-6.69131-18.56474,148.44905,148.44905,0,0,1-4.62176-29.12539,2.558,2.558,0,0,0-2.5-2.5,2.522,2.522,0,0,0-2.5,2.5Z"/><g id="Modèle_2" data-name="Modèle 2"><path class="cls-3" d="M147.56649,188.91488a14.01863,14.01863,0,0,1,10.97873,6.63831c4.1276,6.71329,2.31488,17.41928-5.14038,21.38852a14.26363,14.26363,0,0,1-14.97659-1.333,15.17522,15.17522,0,0,1-4.36542-18.343C136.34506,192.48428,141.54391,188.58908,147.56649,188.91488Z"/><path d="M147.56649,191.41488a11.67789,11.67789,0,0,1,10.34742,9.28406,13.72482,13.72482,0,0,1-3.0561,12.016c-3.66808,3.86756-9.74511,4.18845-14.21014,1.39389a12.51947,12.51947,0,0,1-5.26848-12.93185,12.177,12.177,0,0,1,12.1873-9.76214c3.21773.12674,3.21213-4.87348,0-5-7.3407-.28911-13.97648,4.65262-16.44588,11.45559a17.758,17.758,0,0,0,4.581,18.71293c5.57623,5.04089,14.53847,6.00057,20.68977,1.40569a18.05279,18.05279,0,0,0,6.69176-16.43741,16.82072,16.82072,0,0,0-15.51669-15.1368,2.5,2.5,0,0,0,0,5Z"/><path class="cls-3" d="M216.56649,188.91488a14.01863,14.01863,0,0,1,10.97873,6.63831c4.1276,6.71329,2.31488,17.41928-5.14038,21.38852a14.26363,14.26363,0,0,1-14.97659-1.333,15.17522,15.17522,0,0,1-4.36542-18.343C205.34506,192.48428,210.54391,188.58908,216.56649,188.91488Z"/><path d="M216.56649,191.41488a11.67789,11.67789,0,0,1,10.34742,9.28406,13.72482,13.72482,0,0,1-3.0561,12.016c-3.66808,3.86756-9.74511,4.18845-14.21014,1.39389a12.51947,12.51947,0,0,1-5.26848-12.93185,12.177,12.177,0,0,1,12.1873-9.76214c3.21773.12674,3.21213-4.87348,0-5-7.3407-.28911-13.97648,4.65262-16.44588,11.45559a17.758,17.758,0,0,0,4.581,18.71293c5.57623,5.04089,14.53847,6.00057,20.68977,1.40569a18.05279,18.05279,0,0,0,6.69176-16.43741,16.82072,16.82072,0,0,0-15.51669-15.1368,2.5,2.5,0,0,0,0,5Z"/></g><g id="Validé_2" data-name="Validé 2"><path class="cls-1" d="M141.84008,207.00322a9.82229,9.82229,0,0,1,1.27394-.82892c.19575-.10564.39777-.19608.59679-.29471q.25238-.11306-.15923.06682.17712-.06949.35687-.13186A12.24875,12.24875,0,0,1,145.38,205.433c.51786-.11069-.48511.01746.0893-.011.25371-.01257.50527-.03581.75969-.03782q.38037-.003.7602.02577.14231.01026.284.02636.286.03161-.19324-.02732a4.322,4.322,0,0,1,1.47737.35812,2.4064,2.4064,0,0,1,.5364.19466c-.54285-.35344.139.07617.26755.14295a9.82344,9.82344,0,0,1,1.28692.80862,2.50879,2.50879,0,0,0,3.42048-.89688,2.57149,2.57149,0,0,0-.89688-3.42047,11.8478,11.8478,0,0,0-13.8553.08983,2.74368,2.74368,0,0,0-1.1489,1.49408,2.555,2.555,0,0,0,.252,1.9264c.6615,1.026,2.30646,1.74273,3.42047.89688Z"/><path class="cls-1" d="M211.4571,207.00322a9.823,9.823,0,0,1,1.27394-.82892c.19575-.10564.39777-.19608.59679-.29471q.25238-.11306-.15923.06682.17712-.06949.35687-.13186a12.24875,12.24875,0,0,1,1.47151-.38151c.51787-.11069-.48511.01746.0893-.011.25371-.01257.50527-.03581.75969-.03782q.38037-.003.7602.02577.14231.01026.284.02636.286.03161-.19324-.02732a4.322,4.322,0,0,1,1.47737.35812,2.40648,2.40648,0,0,1,.53641.19466c-.54286-.35344.139.07617.26754.14295a9.82355,9.82355,0,0,1,1.28693.80862,2.50878,2.50878,0,0,0,3.42047-.89688,2.57149,2.57149,0,0,0-.89688-3.42047,11.8478,11.8478,0,0,0-13.8553.08983,2.74368,2.74368,0,0,0-1.1489,1.49408,2.555,2.555,0,0,0,.252,1.9264c.6615,1.026,2.30646,1.74273,3.42047.89688Z"/></g></g><g id="bouches"><path class="cls-4" d="M160.75934,322.62152a39.73754,39.73754,0,0,0,41.3079-2.8149,2.57131,2.57131,0,0,0,.89688-3.42047,2.51991,2.51991,0,0,0-3.42048-.89688,34.76482,34.76482,0,0,1-36.26071,2.81489c-2.85291-1.47866-5.38451,2.83454-2.52359,4.31736Z"/></g></svg>