<svg id="Calque_1" data-name="Calque 1" xmlns="http://www.w3.org/2000/svg" viewBox="0 0 708.11296 1103.00035"><defs><style>.cls-1{fill:#96d1e5;}.cls-2{fill:#eaeaea;}.cls-3{fill:#3f497b;}.cls-4{fill:#8a70b0;}.cls-5{fill:#f0802d;}.cls-6{fill:#cc3a3a;}.cls-7{fill:#fbd120;}.cls-8,.cls-9{fill:#1c1b19;}.cls-9{stroke:#1c1b19;stroke-miterlimit:10;stroke-width:3px;}</style></defs><title>colored_fish1</title><path class="cls-1" d="M616.9,397.16014l-541.05984.00018q.28491-3.16517.63989-6.33008c9.25-82.86,38.94013-158.29,84.22991-227.87,29.97007-46.02,65.6401-87.26,105.09-125.31l149.07987-.00005c69.64,61.33,125.12,133.72,163.11007,219.62982A494.46136,494.46136,0,0,1,616.9,397.16014Z"/><path class="cls-2" d="M705.3402,653.95006l-702.57.00023q-.60013-3.735-1.27-7.44995v-31a22.58512,22.58512,0,0,0,.83008-3.36,236.12266,236.12266,0,0,1,13.28-59.3c6.71-18.63,13.67992-37.21,25-53.7,9.7998-14.28,19.81-28.42,29.48-42.79a17.50142,17.50142,0,0,0,2.56-8.24c1.23-16.97,1.61987-34.02,3.19-50.94995L616.9,397.1602q1.83,14.61,2.77,29.42993a15.41244,15.41244,0,0,0,2.64,7.27c15.3,22.42993,30.8799,44.64989,46.12,67.11,11.68995,17.24,18.85,36.65,25.45,56.21007C704.5101,588.70006,709.04014,620.91014,705.3402,653.95006Z"/><path class="cls-3" d="M462.98012,859.38019l-239.7.00008c-28.0901-37.02-52.48-76.32005-74.19-117.73a44.75717,44.75717,0,0,0-2.47021,3.80994c-6.96973,13.80994-14.36987,27.43006-20.6997,41.53-5.16015,11.5-8.53026,23.80994-13.60008,35.37-7.01,16-25.02,19.24-37.3501,6.82008a62.44367,62.44367,0,0,1-11.46-15.59008q-13.20007-26.31006-25.21-53.2c-11.29-25.38013-23.45-50.48-30.12014-77.62011-2.32984-9.48-3.79981-19.16992-5.40992-28.82l702.57029-.00023c-.24,2.20008-.53,4.4-.8501,6.61-3.26,22.42-10.23,43.76-19.36,64.36011q-19.21487,43.35-39.27986,86.33a65.07984,65.07984,0,0,1-9.54,14.55994c-14.88,17.48-35.18,13.38-42.84009-8.25-4.33-12.22-8.53-24.55994-13.95-36.30993-6.68995-14.49011-14.52-28.45007-21.98-42.56994-2.17005-4.1001-4.77-7.9801-7.61-12.68006-1.11,1.88-1.96008,3.18006-2.68005,4.53992C523.00014,776.10014,494.51017,818.79,462.98012,859.38019Z"/><path class="cls-4" d="M486.13021,962.10015l-292.56992.0001a330.39117,330.39117,0,0,1,33.06994-45.04c7.43-8.41992,15.85-15.97,23.84-23.92994q-14.15991-16.53012-27.19-33.75l239.7-.00008q-11.55,14.87979-23.62,29.38984c-3.08008,3.71008-2.52,5.72009.08984,9.1001C455.62014,918.86017,471.29024,940.20013,486.13021,962.10015Z"/><path class="cls-5" d="M524.56028,1023.73015l-363.71.00011q5.87988-12.33,12.05987-24.53c6.40014-12.66,13.22008-25.08,20.65013-37.1l292.56992-.0001c13.18006,19.41992,25.70009,39.29,37.36,59.73C523.85034,1022.46013,524.21017,1023.09013,524.56028,1023.73015Z"/><path class="cls-6" d="M540.58031,1054.55l-393.97.00012q6.89978-15.49492,14.24-30.82l363.71-.00012C530.25023,1033.81,535.58031,1044.11009,540.58031,1054.55Z"/><path class="cls-7" d="M544.62019,1064.82l-155.84,0c-.12-.03-.25-.06994-.37-.1-32.63-8.62-64.79993-7.59-96.54993.1l-149.14007,0a52.6896,52.6896,0,0,1,2.62011-7.42994c.41992-.95007.83985-1.89,1.27-2.84009l393.97-.00012c.08.16.14991.31.23.47A61.7801,61.7801,0,0,1,544.62019,1064.82Z"/><path class="cls-8" d="M521.72067,460.77489c-1.37336,80.592-23.791,152.80078-65.24723,219.29677a463.05338,463.05338,0,0,1-46.152,61.46327c-4.82617,5.46527-10.4284,8.93287-17.9577,7.417a17.10886,17.10886,0,0,1-9.68055-28.37573c16.22369-18.62171,31.32726-38.05793,44.34538-59.06789,29.96861-48.36622,49.18591-100.6147,56.6406-157.10267,2.90579-22.01877,4.09252-44.07261,2.10718-66.2641A17.21413,17.21413,0,0,1,501.64,419.68914c9.608-.75471,17.77392,6.09307,18.65918,16.16082C521.08605,444.79951,521.34023,453.79585,521.72067,460.77489Z"/><path class="cls-8" d="M354.029,766.3718a17.02517,17.02517,0,0,1,17.27558,16.771h0q.005.33921-.00348.67865a17.2162,17.2162,0,0,1-17.33081,16.97413,17.4518,17.4518,0,0,1-17.32556-17.04821,17.19585,17.19585,0,0,1,17.014-17.37574Q353.8438,766.36976,354.029,766.3718Z"/><path class="cls-8" d="M448.51,174.23014c.07006-24.72009-18.6-43.85-42.82009-43.91a43.09513,43.09513,0,0,0-.22,86.18994C428.91,216.62018,448.44991,197.43021,448.51,174.23014Zm-51.3-1.1a8.70753,8.70753,0,0,1,8.35009-8.34009c4.3899-.05994,8.46,4.23,8.36,8.82007a8.359,8.359,0,0,1-16.71564-.281l.00025-.01392q.00165-.09255.00531-.185Z"/><path class="cls-8" d="M180.61745,310.30844c4.05316-13.84176,7.2434-28.0108,12.342-41.45615,10.12218-26.693,25.20085-50.57731,44.30271-71.84266,7.04352-7.84128,17.56225-8.73737,24.94489-2.34513,7.50091,6.49473,7.88709,17.16482.83521,25.36-20.4624,23.78-36.15434,50.16869-44.11179,80.76159-1.12884,4.34-1.73108,8.815-2.64465,13.2135-1.84893,8.90162-9.95635,15.14289-18.41693,14.22837a17.32423,17.32423,0,0,1-15.85022-17.51305Z"/><path class="cls-9" d="M485.03005,400.4501q2.50484-1.61994,4.96-3.28992l-73.62,0c-1.11.45-2.22.87989-3.34,1.30994-55.16991,21.12-110.83007,19.72-166.46,1.65-2.91-.95-5.8-1.93-8.67005-2.96l-81.22,0c32.20008,18.83,66.19008,33.77988,102.93019,42.66989C340.43009,459.39021,415.53007,445.68022,485.03005,400.4501Zm0,0q2.50484-1.61994,4.96-3.28992l-73.62,0c-1.11.45-2.22.87989-3.34,1.30994-55.16991,21.12-110.83007,19.72-166.46,1.65-2.91-.95-5.8-1.93-8.67005-2.96l-81.22,0c32.20008,18.83,66.19008,33.77988,102.93019,42.66989C340.43009,459.39021,415.53007,445.68022,485.03005,400.4501Zm0,0q2.50484-1.61994,4.96-3.28992l-73.62,0c-1.11.45-2.22.87989-3.34,1.30994-55.16991,21.12-110.83007,19.72-166.46,1.65-2.91-.95-5.8-1.93-8.67005-2.96l-81.22,0c32.20008,18.83,66.19008,33.77988,102.93019,42.66989C340.43009,459.39021,415.53007,445.68022,485.03005,400.4501Zm0,0q2.50484-1.61994,4.96-3.28992l-73.62,0c-1.11.45-2.22.87989-3.34,1.30994-55.16991,21.12-110.83007,19.72-166.46,1.65-2.91-.95-5.8-1.93-8.67005-2.96l-81.22,0c32.20008,18.83,66.19008,33.77988,102.93019,42.66989C340.43009,459.39021,415.53007,445.68022,485.03005,400.4501Zm-292.2498,696.59015c24.03-7.91,48.1599-15.57,71.98-24.07a266.14909,266.14909,0,0,1,27.1001-8.15c31.75-7.68995,63.91991-8.72,96.54992-.1.12.03.25.06995.37.1,25.9,6.85,51.29,15.63,76.98,23.3,13.99,4.18,27.95,8.9,42.26,11.45995,12.24,2.2,24.75.08,32.91994-10.93995,5.71008-7.71,5.92016-15.81995,3.68-23.81995a61.77951,61.77951,0,0,0-3.80994-9.80005c-.08007-.15991-.15-.30994-.23-.47-5-10.43994-10.33009-20.74-16.02-30.82-.35009-.64-.71-1.27-1.07007-1.9-11.65991-20.43993-24.17994-40.31005-37.36-59.73-14.84-21.9-30.51-43.24-46.68-64.23-2.60987-3.38-3.16993-5.39-.08985-9.1001q12.05978-14.52008,23.61977-29.39c31.53-40.5901,60.02-83.28005,84.27-128.84011.72-1.35987,1.57005-2.65992,2.68005-4.53992,2.84,4.69995,5.43994,8.58,7.61,12.68,7.46,14.11987,15.29,28.07983,21.98,42.57,5.41993,11.75,9.62,24.09,13.95,36.30993,7.66,21.63,27.96009,25.73,42.84009,8.25a65.08064,65.08064,0,0,0,9.54-14.55994Q665.815,768.23,685.13,724.92016c9.13-20.6001,16.1-41.94007,19.36-64.36012.32007-2.21.61011-4.40991.8501-6.61,3.69994-33.03992-.8301-65.25-11.46012-96.7699-6.6-19.56005-13.76-38.97008-25.45-56.21007-15.24-22.46-30.81985-44.68-46.1199-67.10991a15.41245,15.41245,0,0,1-2.64-7.27q-.945-14.82-2.77-29.42993A494.46138,494.46138,0,0,0,577.98992,257.28c-37.99-85.9099-93.47-158.29989-163.11007-219.62983Q403.675,27.78,391.98986,18.29c-9.51-7.72-20.41993-12.3999-32.35-14.88988-2.73-.57007-5.43-1.26-8.14-1.90015h-22c-7.83,2.11011-15.8,3.84009-23.47,6.41017-15.01,5.02978-25.89,16.04-36.98,26.61988q-1.63513,1.56006-3.25,3.12012c-39.45,38.04993-75.12,79.28993-105.09,125.31-45.28977,69.58-74.97993,145.01-84.2299,227.87q-.36,3.165-.63989,6.33007c-1.57007,16.92994-1.96,33.98-3.19,50.95a17.50157,17.50157,0,0,1-2.56,8.24c-9.66992,14.37-19.68017,28.51-29.48,42.79-11.32006,16.49-18.29,35.06992-25,53.7a236.12212,236.12212,0,0,0-13.28,59.3,22.58592,22.58592,0,0,1-.83008,3.36v31q.67492,3.72,1.27,7.45c1.61011,9.65,3.08009,19.34,5.40992,28.82,6.67018,27.14014,18.8301,52.24,30.12015,77.62011q11.95513,26.87988,25.21,53.2a62.44344,62.44344,0,0,0,11.46,15.59009c12.33008,12.41991,30.34009,9.17992,37.3501-6.82008,5.06982-11.56006,8.43993-23.87,13.60008-35.37,6.32983-14.1,13.73-27.7201,20.6997-41.53a44.75717,44.75717,0,0,1,2.47021-3.80994c21.71,41.40991,46.09988,80.71,74.19,117.73q13.0499,17.205,27.19,33.75c-7.99,7.96-16.4099,15.51-23.84,23.92994a330.38844,330.38844,0,0,0-33.06991,45.04c-7.43005,12.02-14.25,24.44-20.65013,37.1q-6.16479,12.195-12.05981,24.53-7.33519,15.31487-14.24,30.82c-.43017.95007-.85009,1.89-1.27,2.84008a52.69087,52.69087,0,0,0-2.62011,7.42994,67.06937,67.06937,0,0,0-2.18994,13.23c-.73,11.35,5.45,18.89,16.3,22.14,1.24.38,2.45.87011,3.66992,1.31006h16c5.43011-1.47022,10.94989-2.70008,16.28009-4.46021ZM624.18005,497.6501c20.66,26.37987,33.99,56.26,42.16,88.58a177.27347,177.27347,0,0,1,4.16994,67.72,180.37676,180.37676,0,0,1-12.42991,45.30005c-11.66,27.93995-24.25,55.49-36.43,83.21-.46009,1.04-1.06993,2-1.55992,2.92-8.40017-17.09009-16.15018-34.02-24.9501-50.39-7.71-14.35-16.5-28.12-25.03992-42.01-1.65014-2.67-2.08006-4.63-.74-7.65q6.91477-15.57,13.08983-31.38c11.77-30.22,21.28-61.18,27.40011-93.18,4.30993-22.51,7.2-45.29993,10.73-67.96.94,1.25992,2.23,3.08,3.6,4.84ZM123.82,327.42028c13.89982-50.84,35.67989-98.12,64.13978-142.41013,32.73-50.92994,72.54-95.77993,117.2-136.43,4.28991-3.90991,9.77-6.5,14.69006-9.71.41992.45.83.8999,1.24,1.35009a149.36487,149.36487,0,0,0,1.09987,49.2c2.05,10.65991,10.21009,16.66992,20.48011,14.98,9.59-1.57007,15.46-10.43007,13.57-21.05a115.565,115.565,0,0,1-.74-38.78c.31006-1.91992.84009-3.81006,1.53-6.91992,5.01,2.96,9.77,5.03979,13.67994,8.18994A626.915,626.915,0,0,1,510.18,202.67021a532.49136,532.49136,0,0,1,41.01,79.85976c1.09009,2.63013,1.48011,4.67-.45,7.29C515.37,337.57,471.87,375.11,416.37,397.16011c-1.11.45-2.22.87989-3.34,1.30994-55.16992,21.12-110.83007,19.72-166.46,1.65-2.91-.95-5.8-1.93-8.67-2.96-40.72-14.48-77.43-36.47007-112.22984-62.03-3.28992-2.42-2.66-4.72989-1.85-7.70987Zm-34.13,455.93c-.2898.71-.7,1.38-1.55,3.04-4.05982-8.78-7.87989-16.63012-11.35987-24.64-9.3401-21.52-18.8799-42.96008-27.7-64.69005a176.51343,176.51343,0,0,1-11.55-43.11c-3.96-29.46-.0901-59.03991,10.37986-88.6,6.44018-18.2,13.24022-36.3,25.03-51.96.79-1.04,1.55005-2.12012,2.7-3.70008,2.89014,17.09,5.32008,33.5,8.46022,49.77a614.39276,614.39276,0,0,0,26.53006,94.49q8.38478,22.95008,18.34987,45.4c1.45,3.28,1.36011,5.58008-.53,8.62a487.256,487.256,0,0,0-38.76,75.38014Zm94.88021,271.19986c4.76-10.38989,9.61-20.68994,14.66991-30.82,10.77-21.57,22.46-42.36,36.21-61.63,17.70006-24.79,38.82005-47.05,65.78-65.17995-7.08-7.70007-13.29-14.38012-19.41993-21.13012q-7.335-8.06982-14.3-16.40991c-22.73-27.17-42.69-56.3701-61.09-86.69a743.16062,743.16062,0,0,1-58.80018-118.74,649.69212,649.69212,0,0,1-22.52981-69.96c-12.73-48.97-19.3602-98.72-17.3001-149.32983.51-12.52,1.84008-25.01,3.26-37.5.90991-8.04,1.85986-16.08008,2.66991-24.1101a24.63791,24.63791,0,0,1,.76-3c5.1399,3.45007,9.90015,6.66,14.67017,9.85009q13.5597,9.07488,27.52979,17.26c32.20008,18.83,66.19008,33.77988,102.93019,42.66989,80.82,19.56,155.91992,5.85,225.41991-39.38008q2.50488-1.61994,4.96-3.28992a352.876,352.876,0,0,0,72.91-66.48c1.02-1.22009,2.16-2.35009,4.15-4.51,3.46,14.37989,6.90992,27.69,9.83,41.11987q3.225,14.865,5.29,29.87012A426.595,426.595,0,0,1,586.18994,454.55c.25,63.87015-12.5,125.3201-35.32976,184.83012q-2.82021,7.33483-5.8,14.57c-26.56,64.51-62.91,123.4-105.36,178.74-6.88989,8.98011-13.96,17.84-21.11986,26.69007-8.94006,11.05-18.02,22.09-27.10009,33.36,17.97,22.68005,35.61013,45.67,52.32009,69.36,14.1,19.97,27.54,40.42992,39.98,61.63q8.89488,15.15,17.07008,30.81994,2.65485,5.1,5.23,10.27c-3.43006-1.03-6.88013-1.99-10.29-3.09-7.27-2.36-14.52-4.77-21.77-7.18-19.90992-6.61987-39.80006-13.29992-59.92994-19.18992-28.90015-8.44995-58.54-12.7-88.82007-10.82-23.12,1.43006-45.34,7.14015-67.23,14.32009-15.71,5.1499-31.38,10.41993-47.05,15.69q-12.69,4.27515-25.37,8.52c-1.51989.5-3.1.8501-5.63,1.54q2.28-5.04,4.58-10.06006ZM485.03005,400.45007q2.50491-1.61994,4.96-3.28992l-73.62,0c-1.11.45-2.22.87989-3.34,1.30994-55.16991,21.12-110.83007,19.72-166.46,1.65005-2.91-.95-5.8-1.93-8.67005-2.96l-81.22009,0c32.20008,18.83,66.19008,33.77988,102.93019,42.66989C340.43,459.39018,415.53,445.68019,485.03,400.45Zm0,0q2.50491-1.61994,4.96-3.28992l-73.62,0c-1.11.45-2.22.87989-3.34,1.30994-55.16991,21.12-110.83007,19.72-166.46,1.65005-2.91-.95-5.8-1.93-8.67005-2.96l-81.22009,0c32.20008,18.83,66.19008,33.77988,102.93019,42.66989C340.43,459.39018,415.53,445.68019,485.03,400.45Zm0,0q2.50491-1.61994,4.96-3.28992l-73.62,0c-1.11.45-2.22.87989-3.34,1.30994-55.16991,21.12-110.83007,19.72-166.46,1.65005-2.91-.95-5.8-1.93-8.67005-2.96l-81.22009,0c32.20008,18.83,66.19008,33.77988,102.93019,42.66989C340.43,459.39018,415.53,445.68019,485.03,400.45Z"/></svg>