<svg width="33" height="25" viewBox="0 0 33 25" fill="none" xmlns="http://www.w3.org/2000/svg">
<path d="M27.8199 2.11142C27.8108 2.09375 27.7956 2.0799 27.7772 2.07236C25.6498 1.09628 23.4048 0.400253 21.0983 0.00170724C21.0774 -0.00218847 21.0557 0.000621943 21.0364 0.00973878C21.0172 0.0188556 21.0013 0.0338147 20.991 0.0524886C20.6853 0.607339 20.4078 1.17726 20.1595 1.76008C17.6733 1.38267 15.1443 1.38267 12.6581 1.76008C12.4082 1.17578 12.1262 0.605717 11.8135 0.0524886C11.8027 0.0342205 11.7868 0.0196059 11.7676 0.0105483C11.7485 0.00149073 11.727 -0.00159011 11.7061 0.00170724C9.39939 0.399417 7.15421 1.09549 5.02707 2.07242C5.00886 2.08014 4.9935 2.09332 4.9831 2.11014C0.729235 8.46272 -0.436058 14.6591 0.135595 20.7788C0.137203 20.7938 0.141811 20.8083 0.149145 20.8215C0.156479 20.8347 0.166389 20.8462 0.178285 20.8555C2.65527 22.6895 5.42581 24.0894 8.37167 24.9955C8.39241 25.0018 8.41457 25.0015 8.43515 24.9947C8.45573 24.988 8.47375 24.9751 8.48679 24.9578C9.1195 24.0969 9.68012 23.1853 10.163 22.2322C10.1696 22.2192 10.1734 22.2048 10.1741 22.1902C10.1748 22.1755 10.1724 22.1609 10.167 22.1473C10.1616 22.1336 10.1534 22.1213 10.1429 22.111C10.1324 22.1008 10.1199 22.0929 10.1061 22.0878C9.22204 21.7496 8.36616 21.3418 7.5465 20.8683C7.53161 20.8596 7.5191 20.8473 7.51009 20.8326C7.50107 20.8178 7.49582 20.8011 7.4948 20.7839C7.49378 20.7666 7.49702 20.7494 7.50424 20.7337C7.51145 20.718 7.52242 20.7043 7.53617 20.6939C7.70816 20.565 7.88026 20.431 8.04449 20.2956C8.05908 20.2836 8.07674 20.2759 8.09547 20.2734C8.1142 20.2709 8.13327 20.2736 8.15052 20.2813C13.5205 22.7321 19.3341 22.7321 24.6405 20.2813C24.6578 20.2731 24.6771 20.27 24.6961 20.2723C24.7151 20.2746 24.7331 20.2822 24.7479 20.2943C24.9122 20.4297 25.0842 20.565 25.2575 20.6939C25.2713 20.7042 25.2824 20.7178 25.2897 20.7335C25.297 20.7491 25.3004 20.7663 25.2995 20.7835C25.2986 20.8008 25.2935 20.8175 25.2846 20.8323C25.2757 20.8471 25.2633 20.8595 25.2484 20.8683C24.4306 21.3458 23.574 21.7533 22.6876 22.0865C22.6738 22.0918 22.6613 22.0999 22.6509 22.1103C22.6405 22.1207 22.6324 22.1332 22.6271 22.1469C22.6218 22.1607 22.6195 22.1754 22.6203 22.1901C22.6212 22.2048 22.6251 22.2191 22.6318 22.2322C23.1227 23.18 23.6825 24.0905 24.3067 24.9563C24.3194 24.9741 24.3373 24.9874 24.358 24.9944C24.3786 25.0014 24.401 25.0017 24.4218 24.9954C27.373 24.0924 30.1483 22.6923 32.6284 20.8555C32.6405 20.8467 32.6506 20.8354 32.6579 20.8224C32.6653 20.8094 32.6698 20.7949 32.6711 20.7801C33.3555 13.7051 31.5254 7.55949 27.8199 2.11142ZM10.9649 17.0525C9.34818 17.0525 8.01603 15.5689 8.01603 13.7468C8.01603 11.9247 9.32234 10.4409 10.9649 10.4409C12.6203 10.4409 13.9396 11.9376 13.9138 13.7467C13.9138 15.5689 12.6074 17.0525 10.9649 17.0525ZM21.8679 17.0525C20.2512 17.0525 18.919 15.5689 18.919 13.7468C18.919 11.9247 20.2253 10.4409 21.8679 10.4409C23.5234 10.4409 24.8426 11.9376 24.8167 13.7467C24.8167 15.5689 23.5234 17.0525 21.8679 17.0525Z" fill="#1C1B19"/>
</svg>
