<svg width="374" height="584" viewBox="0 0 374 584" fill="none" xmlns="http://www.w3.org/2000/svg">
<g clip-path="url(#clip0_117_818)">
<path d="M326.415 210.059L39.4308 210.059C39.5316 208.939 39.6447 207.819 39.7703 206.699C44.6766 162.708 60.4246 122.661 84.4468 85.7206C100.343 61.2881 119.263 39.3934 140.188 19.1924L219.262 19.1924C256.199 51.753 285.627 90.1855 305.777 135.796C316.27 159.399 323.224 184.423 326.415 210.059Z" fill="#96D1E5"/>
<path d="M373.325 346.392H0.673645C0.461395 345.07 0.236847 343.751 0 342.436V325.978C0.192139 325.396 0.339325 324.799 0.440308 324.194C1.42368 313.44 3.7912 302.858 7.48413 292.711C11.0432 282.821 14.7401 272.956 20.7444 264.202C25.9424 256.62 31.2519 249.113 36.381 241.484C37.1913 240.162 37.6581 238.658 37.7388 237.109C38.3912 228.1 38.5981 219.048 39.4308 210.06L326.415 210.06C327.062 215.231 327.552 220.439 327.884 225.684C328.016 227.069 328.498 228.397 329.285 229.544C337.4 241.452 345.664 253.249 353.747 265.173C359.948 274.326 363.746 284.631 367.246 295.016C372.885 311.75 375.287 328.85 373.325 346.392Z" fill="#EAEAEA"/>
<path d="M244.774 455.456H117.635C102.735 435.802 89.7987 414.937 78.2835 392.952C77.8129 393.604 77.3756 394.279 76.9733 394.975C73.2765 402.307 69.3513 409.538 65.9939 417.024C63.2569 423.129 61.4694 429.665 58.7803 435.802C55.0621 444.297 45.5094 446.017 38.9694 439.423C36.5259 436.997 34.4751 434.204 32.8908 431.146C28.2232 421.834 23.766 412.419 19.5192 402.902C13.5309 389.427 7.08109 376.101 3.54315 361.692C2.30737 356.659 1.52768 351.515 0.673676 346.392H373.325C373.198 347.56 373.044 348.728 372.874 349.901C371.145 361.804 367.448 373.134 362.605 384.07C355.811 399.414 348.866 414.691 341.771 429.904C340.438 432.696 338.736 435.295 336.711 437.634C328.818 446.914 318.051 444.737 313.988 433.254C311.691 426.766 309.463 420.215 306.589 413.976C303.04 406.283 298.887 398.872 294.93 391.376C293.779 389.199 292.4 387.139 290.894 384.644C290.305 385.642 289.854 386.332 289.472 387.054C276.61 411.242 261.498 433.907 244.774 455.456Z" fill="#3F497B"/>
<path d="M257.053 509.991H101.871C107.033 501.539 112.9 493.54 119.411 486.079C123.352 481.609 127.818 477.6 132.056 473.374C127.049 467.524 122.242 461.551 117.635 455.456H244.774C240.69 460.723 236.514 465.924 232.246 471.06C230.612 473.029 230.909 474.096 232.294 475.891C240.87 487.035 249.182 498.364 257.053 509.991Z" fill="#8A70B0"/>
<path d="M277.437 542.711H84.521C86.6002 538.347 88.7324 534.006 90.9177 529.688C94.3124 522.967 97.9298 516.373 101.871 509.991H257.053C264.044 520.301 270.685 530.851 276.869 541.702C277.06 542.037 277.251 542.371 277.437 542.711Z" fill="#F0802D"/>
<path d="M285.934 559.074H76.9681C79.4079 553.59 81.9256 548.135 84.5212 542.711H277.437C280.455 548.063 283.282 553.531 285.934 559.074Z" fill="#CC3A3A"/>
<path d="M288.077 564.526H205.418C205.354 564.51 205.285 564.489 205.222 564.473C187.914 559.897 170.851 560.443 154.01 564.526H74.9048C75.269 563.178 75.7336 561.86 76.2945 560.582C76.5172 560.077 76.74 559.578 76.9681 559.074H285.934C285.977 559.159 286.014 559.238 286.056 559.323C286.876 560.997 287.552 562.738 288.077 564.526Z" fill="#FBD120"/>
<path d="M275.931 243.833C275.202 286.62 263.312 324.957 241.323 360.26C234.081 371.797 225.893 382.712 216.843 392.891C214.284 395.793 211.312 397.634 207.318 396.829C205.718 396.547 204.223 395.841 202.989 394.783C201.754 393.725 200.826 392.355 200.302 390.816C199.777 389.277 199.675 387.625 200.006 386.032C200.337 384.44 201.089 382.966 202.184 381.764C210.789 371.878 218.8 361.559 225.705 350.404C241.601 324.726 251.794 296.987 255.748 266.997C257.289 255.307 257.919 243.599 256.866 231.817C256.685 229.401 257.469 227.012 259.047 225.175C260.625 223.338 262.867 222.204 265.28 222.02C270.376 221.62 274.707 225.255 275.177 230.6C275.594 235.352 275.729 240.128 275.931 243.833Z" fill="#1C1B19"/>
<path d="M186.985 406.077C188.201 406.059 189.408 406.287 190.534 406.748C191.66 407.208 192.682 407.891 193.537 408.756C194.393 409.622 195.065 410.651 195.513 411.782C195.962 412.914 196.177 414.124 196.147 415.341C196.113 417.754 195.127 420.055 193.405 421.743C191.683 423.431 189.364 424.369 186.954 424.353C184.547 424.336 182.242 423.382 180.526 421.692C178.811 420.002 177.82 417.71 177.764 415.302C177.752 414.087 177.981 412.881 178.44 411.756C178.899 410.63 179.578 409.608 180.437 408.749C181.296 407.89 182.317 407.211 183.442 406.752C184.566 406.293 185.771 406.064 186.985 406.077Z" fill="#3F497B"/>
<path d="M237.099 91.704C237.136 78.5798 227.234 68.4236 214.387 68.3918C208.328 68.3821 202.514 70.7803 198.221 75.0595C193.928 79.3386 191.508 85.1487 191.492 91.2129C191.477 97.2772 193.867 103.099 198.138 107.401C202.41 111.702 208.212 114.129 214.27 114.151C226.703 114.209 237.067 104.021 237.099 91.704ZM209.889 91.12C209.937 89.9601 210.419 88.8608 211.24 88.0405C212.06 87.2201 213.159 86.7388 214.318 86.6921C216.647 86.6603 218.805 88.9379 218.752 91.3748C218.742 91.9616 218.615 92.5406 218.38 93.0781C218.145 93.6157 217.805 94.1012 217.381 94.5065C216.957 94.9118 216.457 95.2288 215.909 95.4393C215.362 95.6497 214.778 95.7494 214.192 95.7326C213.606 95.7157 213.029 95.5827 212.495 95.3411C211.96 95.0995 211.479 94.7543 211.079 94.3253C210.679 93.8963 210.367 93.3921 210.163 92.8419C209.959 92.2917 209.866 91.7064 209.889 91.12L209.889 91.12Z" fill="#1C1B19"/>
<path d="M95.006 163.949C97.1559 156.6 98.848 149.078 101.552 141.94C106.921 127.768 114.919 115.088 125.051 103.798C128.787 99.6348 134.366 99.1591 138.282 102.553C142.261 106.001 142.466 111.666 138.725 116.017C127.872 128.642 119.548 142.652 115.328 158.894C114.729 161.198 114.41 163.574 113.925 165.909C112.944 170.635 108.644 173.948 104.156 173.463C101.84 173.265 99.6844 172.196 98.1243 170.47C96.5642 168.745 95.7155 166.492 95.7493 164.165L95.006 163.949Z" fill="#1C1B19"/>
<path d="M256.47 211.806C257.356 211.233 258.233 210.651 259.101 210.06H220.052C219.463 210.298 218.874 210.527 218.28 210.755C189.018 221.968 159.495 221.225 129.988 211.631C128.444 211.127 126.912 210.606 125.389 210.06H82.3092C99.3885 220.057 117.417 227.994 136.905 232.713C179.772 243.098 219.606 235.819 256.47 211.806ZM256.47 211.806C257.356 211.233 258.233 210.651 259.101 210.06H220.052C219.463 210.298 218.874 210.527 218.28 210.755C189.018 221.968 159.495 221.225 129.988 211.631C128.444 211.127 126.912 210.606 125.389 210.06H82.3092C99.3885 220.057 117.417 227.994 136.905 232.713C179.772 243.098 219.606 235.819 256.47 211.806ZM256.47 211.806C257.356 211.233 258.233 210.651 259.101 210.06H220.052C219.463 210.298 218.874 210.527 218.28 210.755C189.018 221.968 159.495 221.225 129.988 211.631C128.444 211.127 126.912 210.606 125.389 210.06H82.3092C99.3885 220.057 117.417 227.994 136.905 232.713C179.772 243.098 219.606 235.819 256.47 211.806ZM256.47 211.806C257.356 211.233 258.233 210.651 259.101 210.06H220.052C219.463 210.298 218.874 210.527 218.28 210.755C189.018 221.968 159.495 221.225 129.988 211.631C128.444 211.127 126.912 210.606 125.389 210.06H82.3092C99.3885 220.057 117.417 227.994 136.905 232.713C179.772 243.098 219.606 235.819 256.47 211.806ZM101.457 581.632C114.203 577.433 127.002 573.366 139.636 568.853C144.348 567.157 149.146 565.712 154.01 564.526C170.851 560.444 187.914 559.897 205.222 564.473C205.285 564.489 205.354 564.51 205.418 564.526C219.155 568.163 232.623 572.824 246.249 576.896C253.669 579.116 261.074 581.621 268.664 582.981C275.156 584.149 281.792 583.023 286.125 577.172C289.154 573.079 289.265 568.773 288.077 564.526C287.552 562.738 286.876 560.997 286.056 559.323C286.014 559.238 285.977 559.159 285.934 559.074C283.282 553.531 280.455 548.063 277.437 542.711C277.251 542.371 277.06 542.037 276.869 541.702C270.685 530.851 264.044 520.302 257.053 509.991C249.182 498.364 240.87 487.035 232.294 475.891C230.909 474.096 230.612 473.029 232.246 471.06C236.51 465.921 240.687 460.719 244.774 455.456C261.498 433.907 276.61 411.242 289.472 387.054C289.854 386.332 290.305 385.642 290.894 384.644C292.4 387.139 293.779 389.199 294.93 391.376C298.887 398.872 303.04 406.283 306.588 413.976C309.463 420.215 311.691 426.766 313.988 433.254C318.051 444.737 328.818 446.914 336.711 437.634C338.735 435.295 340.437 432.695 341.771 429.904C348.83 414.677 355.775 399.399 362.605 384.07C367.448 373.134 371.145 361.804 372.874 349.901C373.044 348.728 373.198 347.56 373.325 346.392C375.287 328.85 372.885 311.75 367.246 295.016C363.746 284.631 359.948 274.326 353.747 265.173C345.664 253.249 337.4 241.452 329.285 229.544C328.498 228.397 328.016 227.069 327.885 225.684C327.55 220.439 327.061 215.231 326.415 210.06C323.224 184.423 316.27 159.399 305.777 135.796C285.627 90.1856 256.199 51.7531 219.261 19.1924C215.299 15.699 211.252 12.2729 207.12 8.91398C202.076 4.81537 196.289 2.33076 189.962 1.00881C188.514 0.706151 187.081 0.339861 185.644 0L173.975 0C169.822 1.12028 165.594 2.03874 161.526 3.40321C153.565 6.07357 147.794 11.919 141.912 17.5359C141.333 18.0881 140.759 18.6403 140.188 19.1924C119.263 39.3935 100.343 61.2882 84.4467 85.7206C60.4245 122.661 44.6765 162.708 39.7701 206.699C39.6429 207.819 39.5297 208.939 39.4308 210.06C38.598 219.048 38.3912 228.1 37.7388 237.109C37.658 238.658 37.1912 240.162 36.3809 241.484C31.2518 249.113 25.9423 256.62 20.7444 264.202C14.7401 272.956 11.0431 282.821 7.48407 292.711C3.79114 302.858 1.42358 313.44 0.440216 324.194C0.339264 324.799 0.192078 325.396 -6.10352e-05 325.978V342.436C0.238586 343.753 0.463104 345.071 0.673553 346.392C1.52756 351.515 2.30725 356.659 3.54303 361.692C7.08096 376.101 13.5307 389.427 19.5191 402.902C23.7465 412.416 28.2037 421.83 32.8908 431.146C34.475 434.204 36.5258 436.997 38.9693 439.423C45.5093 446.017 55.062 444.297 58.7802 435.802C61.4693 429.665 63.2569 423.129 65.9939 417.024C69.3513 409.538 73.2764 402.307 76.9732 394.975C77.3755 394.279 77.8128 393.604 78.2834 392.952C89.7987 414.937 102.735 435.802 117.635 455.456C122.249 461.546 127.056 467.519 132.057 473.375C127.819 477.601 123.352 481.609 119.411 486.079C112.901 493.54 107.033 501.539 101.871 509.991C97.9298 516.373 94.3124 522.967 90.9177 529.688C88.7378 534.004 86.6056 538.345 84.5211 542.711C81.9273 548.132 79.4096 553.586 76.968 559.074C76.7398 559.578 76.5171 560.077 76.2944 560.582C75.7334 561.86 75.2689 563.179 74.9046 564.526C74.284 566.823 73.8949 569.176 73.7431 571.55C73.3559 577.576 76.6338 581.579 82.3888 583.305C83.0465 583.506 83.6883 583.766 84.3353 584H92.8219C95.7021 583.219 98.63 582.566 101.457 581.632ZM330.277 263.411C341.235 277.416 348.305 293.28 352.639 310.439C355.682 322.169 356.433 334.377 354.851 346.392C353.71 354.662 351.493 362.747 348.258 370.442C342.073 385.275 335.395 399.902 328.935 414.619C328.691 415.171 328.367 415.681 328.107 416.169C323.652 407.096 319.541 398.108 314.873 389.417C310.784 381.798 306.122 374.487 301.592 367.113C300.717 365.696 300.489 364.655 301.2 363.052C303.645 357.541 305.959 351.987 308.143 346.392C314.385 330.348 319.43 313.911 322.676 296.922C324.962 284.971 326.495 272.871 328.367 260.841C328.866 261.51 329.55 262.476 330.277 263.411H330.277ZM64.8799 173.034C72.2526 146.042 83.805 120.941 98.9005 97.4271C116.261 70.388 137.377 46.5767 161.065 24.9953C163.34 22.9194 166.247 21.5443 168.857 19.8401C169.079 20.079 169.297 20.3179 169.514 20.5569C168.265 29.2362 168.462 38.0629 170.098 46.6776C171.185 52.3371 175.513 55.5278 180.961 54.6306C186.047 53.7971 189.161 49.0932 188.158 43.455C186.869 36.6633 186.737 29.7024 187.766 22.8664C187.93 21.8471 188.211 20.8436 188.577 19.1925C191.235 20.764 193.759 21.8682 195.833 23.5406C224.991 46.9368 250 75.0853 269.81 106.803C278.24 120.298 285.516 134.481 291.562 149.201C292.14 150.598 292.347 151.681 291.323 153.072C272.563 178.423 249.49 198.353 220.052 210.06C219.463 210.298 218.874 210.527 218.28 210.755C189.017 221.968 159.495 221.225 129.988 211.631C128.444 211.127 126.912 210.606 125.389 210.059C103.791 202.372 84.3194 190.697 65.8612 177.127C64.1162 175.842 64.4503 174.616 64.88 173.034L64.8799 173.034ZM46.777 415.091C46.6233 415.468 46.4057 415.824 45.9548 416.705C43.8014 412.044 41.7752 407.876 39.9294 403.624C34.9753 392.199 29.9153 380.816 25.237 369.279C22.2357 361.94 20.1771 354.25 19.1107 346.392C17.0103 330.751 19.063 315.047 24.6164 299.353C28.0323 289.691 31.6391 280.081 37.8926 271.767C38.3116 271.215 38.7148 270.641 39.3247 269.803C40.8577 278.876 42.1465 287.588 43.8121 296.226C47.1587 313.297 51.8643 330.072 57.8839 346.392C60.8488 354.515 64.0931 362.549 67.6169 370.495C68.386 372.236 68.3383 373.457 67.3358 375.071C59.3344 387.788 52.4555 401.179 46.777 415.091ZM97.1025 559.074C99.6272 553.558 102.2 548.089 104.884 542.711C110.596 531.26 116.797 520.222 124.09 509.991C133.478 496.83 144.68 485.012 158.98 475.387C155.225 471.299 151.931 467.752 148.68 464.168C146.086 461.312 143.558 458.408 141.095 455.456C129.039 441.031 118.452 425.529 108.692 409.432C96.4413 389.39 86.0038 368.293 77.5036 346.392C72.8233 334.246 68.8335 321.846 65.5536 309.249C58.8015 283.251 55.2848 256.838 56.3775 229.969C56.648 223.322 57.3535 216.691 58.1066 210.06C58.5892 205.791 59.0931 201.522 59.5227 197.259C59.6236 196.72 59.7583 196.188 59.9258 195.667C62.6521 197.498 65.177 199.202 67.7071 200.896C72.5019 204.108 77.3693 207.163 82.3092 210.06C99.3885 220.057 117.417 227.994 136.905 232.713C179.772 243.098 219.606 235.819 256.47 211.806C257.356 211.233 258.233 210.651 259.101 210.06C273.579 200.165 286.597 188.284 297.773 174.765C298.314 174.117 298.919 173.517 299.974 172.37C301.809 180.005 303.639 187.071 305.188 194.201C306.329 199.463 307.264 204.749 307.994 210.06C309.389 220.156 310.101 230.336 310.126 240.528C310.259 274.438 303.496 307.062 291.387 338.656C290.39 341.252 289.364 343.831 288.311 346.392C274.223 380.641 254.942 411.906 232.426 441.286C228.772 446.054 225.022 450.758 221.224 455.456C216.482 461.323 211.666 467.184 206.85 473.167C216.381 485.208 225.738 497.414 234.601 509.991C242.08 520.594 249.209 531.456 255.807 542.711C258.952 548.073 261.97 553.528 264.861 559.074C265.8 560.879 266.724 562.696 267.635 564.526C265.816 563.979 263.986 563.47 262.177 562.886C258.321 561.633 254.476 560.353 250.63 559.074C240.07 555.559 229.52 552.013 218.843 548.886C203.514 544.4 187.792 542.143 171.731 543.141C159.468 543.9 147.683 546.932 136.072 550.744C127.739 553.478 119.428 556.276 111.116 559.074C106.629 560.587 102.143 562.095 97.6594 563.597C96.8532 563.863 96.0151 564.048 94.6732 564.415C95.4794 562.631 96.2892 560.851 97.1025 559.074ZM256.47 211.806C257.356 211.233 258.233 210.651 259.101 210.06H220.052C219.463 210.298 218.874 210.527 218.28 210.755C189.018 221.968 159.495 221.225 129.988 211.631C128.444 211.127 126.912 210.606 125.389 210.06H82.3092C99.3885 220.057 117.417 227.994 136.905 232.713C179.772 243.098 219.606 235.819 256.47 211.806L256.47 211.806ZM256.47 211.806C257.356 211.233 258.233 210.651 259.101 210.06H220.052C219.463 210.298 218.874 210.527 218.28 210.755C189.018 221.968 159.495 221.225 129.988 211.631C128.444 211.127 126.912 210.606 125.389 210.06H82.3092C99.3885 220.057 117.417 227.994 136.905 232.713C179.772 243.098 219.606 235.819 256.47 211.806L256.47 211.806ZM256.47 211.806C257.356 211.233 258.233 210.651 259.101 210.06H220.052C219.463 210.298 218.874 210.527 218.28 210.755C189.018 221.968 159.495 221.225 129.988 211.631C128.444 211.127 126.912 210.606 125.389 210.06H82.3092C99.3885 220.057 117.417 227.994 136.905 232.713C179.772 243.098 219.606 235.819 256.47 211.806L256.47 211.806Z" fill="#1C1B19"/>
</g>
<defs>
<clipPath id="clip0_117_818">
<rect width="584" height="374" fill="white" transform="translate(374) rotate(90)"/>
</clipPath>
</defs>
</svg>
