<svg width="16" height="15" viewBox="0 0 16 15" fill="none" xmlns="http://www.w3.org/2000/svg">
<path d="M7.50334 3.65419C5.37459 3.65419 3.65754 5.37125 3.65754 7.5C3.65754 9.62875 5.37459 11.3458 7.50334 11.3458C9.6321 11.3458 11.3492 9.62875 11.3492 7.5C11.3492 5.37125 9.6321 3.65419 7.50334 3.65419ZM7.50334 10.0003C6.12769 10.0003 5.00307 8.879 5.00307 7.5C5.00307 6.121 6.12434 4.99972 7.50334 4.99972C8.88235 4.99972 10.0036 6.121 10.0036 7.5C10.0036 8.879 8.879 10.0003 7.50334 10.0003ZM12.4035 3.49688C12.4035 3.99559 12.0018 4.3939 11.5065 4.3939C11.0078 4.3939 10.6094 3.99225 10.6094 3.49688C10.6094 3.00151 11.0111 2.59985 11.5065 2.59985C12.0018 2.59985 12.4035 3.00151 12.4035 3.49688ZM14.9506 4.40729C14.8937 3.20568 14.6193 2.1413 13.739 1.26436C12.862 0.387426 11.7977 0.112964 10.5961 0.0527167C9.35763 -0.0175722 5.64571 -0.0175722 4.40728 0.0527167C3.20903 0.109617 2.14465 0.384079 1.26436 1.26102C0.384079 2.13796 0.112964 3.20233 0.0527167 4.40394C-0.0175722 5.64236 -0.0175722 9.35429 0.0527167 10.5927C0.109617 11.7943 0.384079 12.8587 1.26436 13.7356C2.14465 14.6126 3.20568 14.887 4.40728 14.9473C5.64571 15.0176 9.35763 15.0176 10.5961 14.9473C11.7977 14.8904 12.862 14.6159 13.739 13.7356C14.6159 12.8587 14.8904 11.7943 14.9506 10.5927C15.0209 9.35429 15.0209 5.64571 14.9506 4.40729ZM13.3507 11.9215C13.0896 12.5775 12.5842 13.083 11.9249 13.3474C10.9375 13.739 8.5945 13.6486 7.50334 13.6486C6.41219 13.6486 4.06588 13.7356 3.08184 13.3474C2.42581 13.0863 1.92039 12.5809 1.65597 11.9215C1.26436 10.9341 1.35474 8.59115 1.35474 7.5C1.35474 6.40885 1.26771 4.06253 1.65597 3.07849C1.91705 2.42246 2.42246 1.91705 3.08184 1.65263C4.06923 1.26102 6.41219 1.35139 7.50334 1.35139C8.5945 1.35139 10.9408 1.26436 11.9249 1.65263C12.5809 1.9137 13.0863 2.41911 13.3507 3.07849C13.7423 4.06588 13.652 6.40885 13.652 7.5C13.652 8.59115 13.7423 10.9375 13.3507 11.9215Z" fill="#FDFDFD"/>
</svg>
