<svg width="28" height="25" viewBox="0 0 28 25" fill="none" xmlns="http://www.w3.org/2000/svg">
<path d="M1.6528 14.2755L1.75 14.1227L7.61112 4.95368C7.69678 4.81944 7.89816 4.83332 7.96296 4.97914C8.94214 7.17358 9.78704 9.90276 9.39122 11.6018C9.22224 12.3009 8.75928 13.2477 8.23842 14.1227C8.17132 14.25 8.09724 14.375 8.01852 14.4954C7.98148 14.5509 7.91898 14.5833 7.85184 14.5833H1.82408C1.66204 14.5833 1.56714 14.4074 1.6528 14.2755Z" fill="#1C1B19"/>
<path d="M27.7778 15.9792V17.4306C27.7778 17.5139 27.7268 17.588 27.6528 17.6204C27.1991 17.8148 25.6458 18.5278 25 19.4259C23.3518 21.7199 22.0926 25 19.2778 25H7.5347C3.3727 25 0 21.6158 0 17.4398V17.3056C0 17.1944 0.0902575 17.1042 0.201379 17.1042H6.7477C6.8773 17.1042 6.9722 17.2245 6.96066 17.3518C6.91434 17.7778 6.99306 18.213 7.19444 18.6088C7.58332 19.3982 8.38888 19.8912 9.25924 19.8912H12.5V17.3611H9.29628C9.13194 17.3611 9.03474 17.1713 9.12964 17.037C9.16434 16.9838 9.20372 16.9283 9.24536 16.8658C9.54862 16.4352 9.98148 15.7662 10.412 15.0046C10.706 14.4908 10.9907 13.9421 11.2199 13.3912C11.2662 13.2917 11.3032 13.1898 11.3403 13.0903C11.4028 12.9143 11.4676 12.75 11.5139 12.5857C11.5602 12.4467 11.5972 12.3009 11.6342 12.1643C11.7431 11.6967 11.7893 11.2014 11.7893 10.6875C11.7893 10.4861 11.7801 10.2755 11.7616 10.0741C11.7523 9.85418 11.7245 9.63424 11.6967 9.41434C11.6782 9.2199 11.6435 9.02776 11.6065 8.82638C11.5602 8.5324 11.4954 8.24076 11.4213 7.94674L11.3958 7.83566C11.3403 7.63424 11.294 7.44214 11.2292 7.24076C11.0463 6.60878 10.8357 5.99306 10.6134 5.41668C10.5324 5.1875 10.4398 4.9676 10.3472 4.7477C10.2107 4.41668 10.0717 4.11576 9.94444 3.83102C9.87964 3.70138 9.82408 3.58332 9.76852 3.46296C9.70602 3.32638 9.64122 3.1898 9.57638 3.0602C9.5301 2.96066 9.47684 2.86806 9.4398 2.77546L9.04398 2.04398C8.98842 1.94444 9.08102 1.82638 9.1898 1.85648L11.6667 2.52776H11.6736C11.6782 2.52776 11.6806 2.5301 11.6829 2.5301L12.0092 2.62036L12.3681 2.72224L12.5 2.75924V1.28704C12.5 0.576379 13.0694 0 13.7732 0C14.125 0 14.4444 0.14352 14.6736 0.377298C14.9028 0.611121 15.0463 0.93056 15.0463 1.28704V3.47224L15.3102 3.54628C15.331 3.55326 15.3518 3.5625 15.3704 3.57638C15.4352 3.625 15.5278 3.69674 15.6458 3.78474C15.7384 3.85878 15.838 3.94908 15.9583 4.04168C16.1967 4.23378 16.4815 4.48148 16.794 4.76622C16.8773 4.83796 16.9583 4.91204 17.0324 4.98612C17.4352 5.36112 17.8866 5.80092 18.3171 6.28704C18.4375 6.42362 18.5556 6.5625 18.6759 6.70832C18.7963 6.85648 18.9236 7.0023 19.0347 7.14816C19.1806 7.3426 19.338 7.54398 19.4745 7.75464C19.5393 7.85418 19.6134 7.95602 19.6759 8.05556C19.8518 8.32174 20.0069 8.59724 20.1551 8.8727C20.2176 9 20.2824 9.13888 20.338 9.27546C20.5023 9.64352 20.6319 10.0185 20.7153 10.3935C20.7407 10.4745 20.7592 10.5625 20.7685 10.6412V10.6597C20.7963 10.7708 20.8056 10.8889 20.8148 11.0092C20.8518 11.3935 20.8333 11.7778 20.75 12.1643C20.7153 12.3287 20.669 12.4838 20.6134 12.6482C20.5579 12.8056 20.5023 12.9699 20.4306 13.125C20.2917 13.4467 20.1273 13.7685 19.9329 14.0694C19.8704 14.1806 19.7963 14.2986 19.7222 14.4097C19.6412 14.5278 19.5579 14.6389 19.4838 14.7477C19.3819 14.8866 19.2732 15.0324 19.162 15.162C19.0625 15.2986 18.9607 15.4352 18.8495 15.5556C18.6944 15.7384 18.5463 15.912 18.3912 16.0787C18.2986 16.1875 18.1991 16.2986 18.0972 16.3982C17.9977 16.5092 17.8958 16.6088 17.8032 16.7014C17.6482 16.8565 17.5185 16.9768 17.4097 17.0764L17.1551 17.3102C17.1181 17.3426 17.0694 17.3611 17.0185 17.3611H15.0463V19.8912H17.5278C18.0833 19.8912 18.6111 19.6944 19.037 19.3333C19.1829 19.206 19.8194 18.6551 20.5717 17.8241C20.5972 17.7963 20.6296 17.7755 20.6667 17.7662L27.5208 15.7847C27.6482 15.7477 27.7778 15.8449 27.7778 15.9792Z" fill="#1C1B19"/>
</svg>
