<svg id="Calque_1" data-name="Calque 1" xmlns="http://www.w3.org/2000/svg" viewBox="0 0 187.98087 193.59224"><title>patte ours pleine</title><path d="M120.299,184.74532a30.83705,30.83705,0,0,1-12.661,7.59222c-9.6134,2.98017-18.3526.43122-26.29907-5.318a59.25346,59.25346,0,0,1-6.59332-5.30225C62.002,169.36391,46.35849,164.12233,29.08719,162.10238c-11.442-1.33814-21.70306-5.47931-26.62927-17.2118C-2.80215,132.36318.805,121.49044,9.243,111.7621,15.064,105.0508,22.823,101.439,30.88248,98.00148c10.181-4.34234,19.92157-9.70935,29.91-14.514,5.95941-2.86655,11.78705-6.4877,18.09937-8.04325,14.545-3.58429,29.51068,5.193,34.01416,19.757,2.38141,7.70154,3.11841,15.89624,5.0119,23.76868,1.81049,7.52728,2.44781,7.87378,5.67682,19.46448,3.623,13.00494,5.42962,19.60492,5.18872,24.38238C128.60025,166.45046,128.07742,176.82027,120.299,184.74532Z"/><path d="M168.06905,48.92256c-.19977,15.94478-13.11026,32.32622-28.606,36.29666-14.1846,3.63451-25.384-4.868-25.67349-19.49116-.334-16.87082,13.915-34.87747,29.87241-37.75025C158.45257,25.31513,168.25942,33.73076,168.06905,48.92256Z"/><path d="M59.86513,35.53337c.79425-12.17615,4.407-22.40173,13.42182-30.19244C83.26412-3.28145,96.26256-1.26538,103.14278,9.954c8.87213,14.46756,3.23914,38.95-11.063,48.08254-12.89227,8.23231-27.61166,1.50351-31.016-14.2462C60.43612,40.886,60.19942,37.8971,59.86513,35.53337Z"/><path d="M168.4728,89.05661c14.77258.03757,23.264,12.69751,17.88165,26.44864-4.83911,12.36351-13.8208,19.59529-26.71194,22.13762-15.53086,3.063-26.92716-9.257-22.72061-24.51547C140.61361,99.73662,154.65859,89.02147,168.4728,89.05661Z"/><path d="M6.94283,51.52123c.33817-6.65,2.4971-14.91239,9.64823-20.86528,9.07244-7.55227,18.45034-6.7,26.35278,2.02087,10.15381,11.2054,8.65793,34.28986-2.85114,43.99944-8.51034,7.17971-19.971,5.92782-26.76156-2.9233C9.01559,68.12792,6.96493,61.71311,6.94283,51.52123Z"/></svg>