<svg width="31" height="25" viewBox="0 0 31 25" fill="none" xmlns="http://www.w3.org/2000/svg">
<path d="M27.6172 6.23045C27.6367 6.50387 27.6367 6.77735 27.6367 7.05078C27.6367 15.3906 21.2891 25 9.68751 25C6.11327 25 2.79298 23.9648 0 22.168C0.507831 22.2266 0.996063 22.2461 1.52343 22.2461C4.47261 22.2461 7.18749 21.25 9.35547 19.5508C6.58203 19.4922 4.2578 17.6758 3.457 15.1758C3.84766 15.2343 4.23826 15.2734 4.64846 15.2734C5.21484 15.2734 5.78129 15.1953 6.3086 15.0586C3.41799 14.4726 1.24995 11.9336 1.24995 8.86718V8.78908C2.08976 9.25783 3.06641 9.5508 4.10149 9.58982C2.40226 8.45698 1.28903 6.52341 1.28903 4.33589C1.28903 3.16404 1.60147 2.08982 2.14838 1.15231C5.25386 4.98044 9.92186 7.48039 15.1562 7.75388C15.0585 7.28513 14.9999 6.79689 14.9999 6.3086C14.9999 2.832 17.8124 0 21.3085 0C23.1249 0 24.7655 0.761717 25.9179 1.99219C27.3436 1.71876 28.7108 1.19139 29.9218 0.468753C29.453 1.93363 28.4569 3.1641 27.1484 3.9453C28.4179 3.80864 29.6484 3.457 30.7812 2.96877C29.9219 4.21872 28.8477 5.33196 27.6172 6.23045Z" fill="#1C1B19"/>
</svg>
