<svg width="15" height="14" viewBox="0 0 15 14" fill="none" xmlns="http://www.w3.org/2000/svg">
<path d="M5.41667 6.66659C6.33724 6.66659 7.08333 5.92049 7.08333 4.99992C7.08333 4.07935 6.33724 3.33325 5.41667 3.33325C4.49609 3.33325 3.75 4.07935 3.75 4.99992C3.75 5.91919 4.4974 6.66659 5.41667 6.66659ZM12.0833 6.04159H9.58333C9.23828 6.04159 8.95833 6.32153 8.95833 6.66659C8.95833 7.01164 9.23828 7.29159 9.58333 7.29159H12.0833C12.4284 7.29159 12.7083 7.01164 12.7083 6.66659C12.7083 6.32153 12.4297 6.04159 12.0833 6.04159ZM6.25 7.49992H4.58333C3.43229 7.49992 2.5 8.43221 2.5 9.58325C2.5 9.81242 2.6875 9.99992 2.91667 9.99992H7.91667C8.14677 9.99992 8.33333 9.81336 8.33333 9.58325C8.33333 8.43221 7.40104 7.49992 6.25 7.49992ZM12.0833 3.95825H9.58333C9.23828 3.95825 8.95833 4.2382 8.95833 4.58325C8.95833 4.9283 9.23828 5.20825 9.58333 5.20825H12.0833C12.4284 5.20825 12.7083 4.9283 12.7083 4.58325C12.7083 4.2382 12.4297 3.95825 12.0833 3.95825ZM13.3333 0.833252H1.66667C0.746094 0.833252 0 1.57935 0 2.49992V10.8333C0 11.7538 0.746094 12.4999 1.66667 12.4999H13.3333C14.2539 12.4999 15 11.7538 15 10.8333V2.49992C15 1.57935 14.2526 0.833252 13.3333 0.833252ZM13.75 10.8333C13.75 11.063 13.5631 11.2499 13.3333 11.2499H1.66667C1.43693 11.2499 1.25 11.063 1.25 10.8333V2.49992C1.25 2.27018 1.43693 2.08325 1.66667 2.08325H13.3333C13.5631 2.08325 13.75 2.27018 13.75 2.49992V10.8333Z" fill="#FDFDFD"/>
</svg>
